<svg width="22" height="16" viewBox="0 0 22 16" fill="#212121" xmlns="http://www.w3.org/2000/svg">
<path d="M13 4.775C13 4.625 13.0543 4.47067 13.163 4.312C13.271 4.154 13.3917 4.05 13.525 4C14.0083 3.83333 14.4917 3.70833 14.975 3.625C15.4583 3.54167 15.9667 3.5 16.5 3.5C16.8333 3.5 17.1627 3.52067 17.488 3.562C17.8127 3.604 18.1333 3.65833 18.45 3.725C18.6 3.75833 18.729 3.84167 18.837 3.975C18.9457 4.10833 19 4.25833 19 4.425C19 4.70833 18.9083 4.91667 18.725 5.05C18.5417 5.18333 18.3083 5.21667 18.025 5.15C17.7917 5.1 17.546 5.06233 17.288 5.037C17.0293 5.01233 16.7667 5 16.5 5C16.0667 5 15.6417 5.04167 15.225 5.125C14.8083 5.20833 14.4083 5.31667 14.025 5.45C13.725 5.56667 13.4793 5.55833 13.288 5.425C13.096 5.29167 13 5.075 13 4.775ZM13 10.275C13 10.125 13.0543 9.97067 13.163 9.812C13.271 9.654 13.3917 9.55 13.525 9.5C14.0083 9.33333 14.4917 9.20833 14.975 9.125C15.4583 9.04167 15.9667 9 16.5 9C16.8333 9 17.1627 9.02067 17.488 9.062C17.8127 9.104 18.1333 9.15833 18.45 9.225C18.6 9.25833 18.729 9.34167 18.837 9.475C18.9457 9.60833 19 9.75833 19 9.925C19 10.2083 18.9083 10.4167 18.725 10.55C18.5417 10.6833 18.3083 10.7167 18.025 10.65C17.7917 10.6 17.546 10.5623 17.288 10.537C17.0293 10.5123 16.7667 10.5 16.5 10.5C16.0667 10.5 15.6417 10.5377 15.225 10.613C14.8083 10.6877 14.4083 10.7917 14.025 10.925C13.725 11.0417 13.4793 11.0373 13.288 10.912C13.096 10.7873 13 10.575 13 10.275ZM13 7.525C13 7.375 13.0543 7.22067 13.163 7.062C13.271 6.904 13.3917 6.8 13.525 6.75C14.0083 6.58333 14.4917 6.45833 14.975 6.375C15.4583 6.29167 15.9667 6.25 16.5 6.25C16.8333 6.25 17.1627 6.27067 17.488 6.312C17.8127 6.354 18.1333 6.40833 18.45 6.475C18.6 6.50833 18.729 6.59167 18.837 6.725C18.9457 6.85833 19 7.00833 19 7.175C19 7.45833 18.9083 7.66667 18.725 7.8C18.5417 7.93333 18.3083 7.96667 18.025 7.9C17.7917 7.85 17.546 7.81233 17.288 7.787C17.0293 7.76233 16.7667 7.75 16.5 7.75C16.0667 7.75 15.6417 7.79167 15.225 7.875C14.8083 7.95833 14.4083 8.06667 14.025 8.2C13.725 8.31667 13.4793 8.30833 13.288 8.175C13.096 8.04167 13 7.825 13 7.525ZM5.5 12C6.28333 12 7.046 12.0873 7.788 12.262C8.52933 12.4373 9.26667 12.7 10 13.05V3.2C9.31667 2.8 8.59167 2.5 7.825 2.3C7.05833 2.1 6.28333 2 5.5 2C4.9 2 4.30433 2.05833 3.713 2.175C3.121 2.29167 2.55 2.46667 2 2.7V12.6C2.58333 12.4 3.16267 12.25 3.738 12.15C4.31267 12.05 4.9 12 5.5 12ZM12 13.05C12.7333 12.7 13.471 12.4373 14.213 12.262C14.9543 12.0873 15.7167 12 16.5 12C17.1 12 17.6877 12.05 18.263 12.15C18.8377 12.25 19.4167 12.4 20 12.6V2.7C19.45 2.46667 18.8793 2.29167 18.288 2.175C17.696 2.05833 17.1 2 16.5 2C15.7167 2 14.9417 2.1 14.175 2.3C13.4083 2.5 12.6833 2.8 12 3.2V13.05ZM11 15.475C10.7667 15.475 10.546 15.446 10.338 15.388C10.1293 15.3293 9.93333 15.25 9.75 15.15C9.1 14.7667 8.41667 14.4793 7.7 14.288C6.98333 14.096 6.25 14 5.5 14C4.8 14 4.11267 14.0917 3.438 14.275C2.76267 14.4583 2.11667 14.7167 1.5 15.05C1.15 15.2333 0.812667 15.225 0.488 15.025C0.162667 14.825 0 14.5333 0 14.15V2.1C0 1.91667 0.046 1.74167 0.138 1.575C0.229333 1.40833 0.366667 1.28333 0.55 1.2C1.31667 0.8 2.11667 0.5 2.95 0.3C3.78333 0.1 4.63333 0 5.5 0C6.46667 0 7.41267 0.125 8.338 0.375C9.26267 0.625 10.15 1 11 1.5C11.85 1 12.7377 0.625 13.663 0.375C14.5877 0.125 15.5333 0 16.5 0C17.3667 0 18.2167 0.1 19.05 0.3C19.8833 0.5 20.6833 0.8 21.45 1.2C21.6333 1.28333 21.771 1.40833 21.863 1.575C21.9543 1.74167 22 1.91667 22 2.1V14.15C22 14.5333 21.8377 14.825 21.513 15.025C21.1877 15.225 20.85 15.2333 20.5 15.05C19.8833 14.7167 19.2373 14.4583 18.562 14.275C17.8873 14.0917 17.2 14 16.5 14C15.75 14 15.0167 14.096 14.3 14.288C13.5833 14.4793 12.9 14.7667 12.25 15.15C12.0667 15.25 11.871 15.3293 11.663 15.388C11.4543 15.446 11.2333 15.475 11 15.475Z"/>
</svg>
