<svg width="54" height="54" viewBox="0 0 54 54" fill="#313131" xmlns="http://www.w3.org/2000/svg">
<path d="M52.2 1.84001C50.64 0.280006 48.12 0.280006 46.56 1.84001L27 21.36L7.44001 1.8C5.88001 0.240005 3.36 0.240005 1.8 1.8C0.240005 3.36 0.240005 5.88001 1.8 7.44001L21.36 27L1.8 46.56C0.240005 48.12 0.240005 50.64 1.8 52.2C3.36 53.76 5.88001 53.76 7.44001 52.2L27 32.64L46.56 52.2C48.12 53.76 50.64 53.76 52.2 52.2C53.76 50.64 53.76 48.12 52.2 46.56L32.64 27L52.2 7.44001C53.72 5.92001 53.72 3.36001 52.2 1.84001Z"/>
</svg>
