<svg width="82" height="56" fill="#313131" viewBox="0 0 82 56" xmlns="http://www.w3.org/2000/svg">
<path d="M5.00002 3.30087e-06C4.46998 -0.00749289 3.94373 0.0904323 3.45185 0.288087C2.95998 0.485742 2.51229 0.779185 2.13482 1.15136C1.75734 1.52354 1.45759 1.96703 1.253 2.45606C1.04841 2.94509 0.943054 3.4699 0.943054 4C0.943054 4.5301 1.04841 5.05492 1.253 5.54395C1.45759 6.03298 1.75734 6.47647 2.13482 6.84864C2.51229 7.22082 2.95998 7.51426 3.45185 7.71192C3.94373 7.90957 4.46998 8.0075 5.00002 8H77C77.5301 8.0075 78.0563 7.90957 78.5482 7.71192C79.0401 7.51426 79.4878 7.22082 79.8652 6.84864C80.2427 6.47647 80.5425 6.03298 80.747 5.54395C80.9516 5.05492 81.057 4.5301 81.057 4C81.057 3.4699 80.9516 2.94509 80.747 2.45606C80.5425 1.96703 80.2427 1.52354 79.8652 1.15136C79.4878 0.779185 79.0401 0.485742 78.5482 0.288087C78.0563 0.0904323 77.5301 -0.00749289 77 3.30087e-06H5.00002ZM5.00002 24C4.46998 23.9925 3.94373 24.0904 3.45185 24.2881C2.95998 24.4857 2.51229 24.7792 2.13482 25.1514C1.75734 25.5235 1.45759 25.967 1.253 26.4561C1.04841 26.9451 0.943054 27.4699 0.943054 28C0.943054 28.5301 1.04841 29.0549 1.253 29.5439C1.45759 30.033 1.75734 30.4765 2.13482 30.8486C2.51229 31.2208 2.95998 31.5143 3.45185 31.7119C3.94373 31.9096 4.46998 32.0075 5.00002 32H77C77.5301 32.0075 78.0563 31.9096 78.5482 31.7119C79.0401 31.5143 79.4878 31.2208 79.8652 30.8486C80.2427 30.4765 80.5425 30.033 80.747 29.5439C80.9516 29.0549 81.057 28.5301 81.057 28C81.057 27.4699 80.9516 26.9451 80.747 26.4561C80.5425 25.967 80.2427 25.5235 79.8652 25.1514C79.4878 24.7792 79.0401 24.4857 78.5482 24.2881C78.0563 24.0904 77.5301 23.9925 77 24H5.00002ZM5.00002 48C4.46998 47.9925 3.94373 48.0904 3.45185 48.2881C2.95998 48.4857 2.51229 48.7792 2.13482 49.1514C1.75734 49.5235 1.45759 49.967 1.253 50.4561C1.04841 50.9451 0.943054 51.4699 0.943054 52C0.943054 52.5301 1.04841 53.0549 1.253 53.5439C1.45759 54.033 1.75734 54.4765 2.13482 54.8486C2.51229 55.2208 2.95998 55.5143 3.45185 55.7119C3.94373 55.9096 4.46998 56.0075 5.00002 56H77C77.5301 56.0075 78.0563 55.9096 78.5482 55.7119C79.0401 55.5143 79.4878 55.2208 79.8652 54.8486C80.2427 54.4765 80.5425 54.033 80.747 53.5439C80.9516 53.0549 81.057 52.5301 81.057 52C81.057 51.4699 80.9516 50.9451 80.747 50.4561C80.5425 49.967 80.2427 49.5235 79.8652 49.1514C79.4878 48.7792 79.0401 48.4857 78.5482 48.2881C78.0563 48.0904 77.5301 47.9925 77 48H5.00002Z"/>
</svg>
